<svg width="4896" height="826" viewBox="0 0 4896 826" fill="none" xmlns="http://www.w3.org/2000/svg">
<path d="M4597.3 825.032C4421.49 825.032 4294.13 737.126 4294.13 573.711V571.457C4294.13 559.06 4304.28 548.917 4316.67 548.917H4385.42C4397.82 548.917 4407.96 559.06 4407.96 571.457V573.711C4407.96 670.633 4483.47 721.348 4597.3 721.348C4710 721.348 4784.38 675.141 4784.38 587.235C4784.38 521.869 4742.68 484.678 4654.77 466.646L4513.9 438.471C4391.06 413.677 4316.67 347.184 4316.67 226.595C4316.67 78.9579 4451.92 0.0678711 4604.06 0.0678711C4766.35 0.0678711 4885.81 86.8468 4885.81 227.722V231.103C4885.81 243.5 4875.67 253.643 4863.27 253.643H4797.9C4785.51 253.643 4775.36 243.5 4775.36 231.103V227.722C4775.36 146.578 4699.86 103.752 4602.93 103.752C4499.25 103.752 4429.38 143.197 4429.38 222.087C4429.38 288.58 4477.84 320.136 4572.5 339.295L4695.35 362.962C4820.44 387.756 4895.95 461.011 4895.95 581.6C4895.95 733.745 4770.86 825.032 4597.3 825.032Z" fill="black"/>
<path d="M3572.11 807C3559.72 807 3549.57 796.857 3549.57 784.46V40.6401C3549.57 28.2431 3559.72 18.1001 3572.11 18.1001H3663.4C3678.05 18.1001 3683.69 23.7351 3692.7 39.5131L4057.85 609.775C4063.49 617.664 4074.76 615.41 4074.76 605.267V40.6401C4074.76 28.2431 4084.9 18.1001 4097.3 18.1001H4160.41C4172.8 18.1001 4182.95 28.2431 4182.95 40.6401V784.46C4182.95 796.857 4172.8 807 4160.41 807H4069.12C4054.47 807 4048.83 801.365 4039.82 785.587L3674.67 215.325C3669.04 207.436 3657.77 209.69 3657.77 219.833V784.46C3657.77 796.857 3647.62 807 3635.23 807H3572.11Z" fill="black"/>
<path d="M3311.04 807C3297.52 807 3287.38 796.857 3287.38 783.333V41.7671C3287.38 28.2431 3297.52 18.1001 3311.04 18.1001H3371.9C3385.43 18.1001 3395.57 28.2431 3395.57 41.7671V783.333C3395.57 796.857 3385.43 807 3371.9 807H3311.04Z" fill="black"/>
<path d="M2810.45 825.032C2685.35 825.032 2588.43 783.333 2521.94 708.951C2459.95 636.823 2428.4 534.266 2428.4 412.55C2428.4 290.834 2459.95 188.277 2521.94 116.149C2587.3 41.7669 2684.23 0.0678711 2809.32 0.0678711C3005.42 0.0678711 3130.52 131.927 3136.15 238.992C3137.28 254.77 3127.14 263.786 3113.61 263.786H3049.37C3034.72 263.786 3025.71 254.77 3023.45 242.373C3009.93 171.372 2927.66 108.26 2809.32 108.26C2719.16 108.26 2651.54 137.562 2606.46 191.658C2562.51 245.754 2541.1 323.517 2541.1 412.55C2541.1 501.583 2562.51 580.473 2606.46 634.569C2652.67 689.792 2719.16 720.221 2810.45 720.221C2949.07 720.221 3035.85 636.823 3035.85 513.98V509.472C3035.85 500.456 3031.34 497.075 3023.45 497.075H2807.07C2793.54 497.075 2783.4 486.932 2783.4 473.408V417.058C2783.4 403.534 2793.54 393.391 2807.07 393.391H3126.01C3139.53 393.391 3149.68 403.534 3149.68 417.058V477.916C3149.68 693.173 3015.56 825.032 2810.45 825.032Z" fill="black"/>
<path d="M1774.42 807C1762.02 807 1751.88 796.857 1751.88 784.46V40.6401C1751.88 28.2431 1762.02 18.1001 1774.42 18.1001H2106.88C2236.49 18.1001 2336.79 113.895 2336.79 250.262C2336.79 350.565 2271.42 427.201 2195.91 462.138C2177.88 471.154 2174.5 482.424 2184.64 499.329L2332.28 770.936C2342.42 788.968 2332.28 807 2313.12 807H2247.76C2230.85 807 2224.09 799.111 2216.2 785.587L2061.8 502.71C2057.29 495.948 2052.79 490.313 2041.52 490.313H1871.34C1864.58 490.313 1860.07 494.821 1860.07 501.583V784.46C1860.07 796.857 1849.93 807 1837.53 807H1774.42ZM1860.07 373.105C1860.07 379.867 1864.58 384.375 1871.34 384.375H2098.99C2171.12 384.375 2226.34 325.771 2226.34 254.77C2226.34 175.88 2171.12 125.165 2098.99 125.165H1871.34C1864.58 125.165 1860.07 129.673 1860.07 136.435V373.105Z" fill="black"/>
<path d="M947.583 807C929.551 807 921.662 791.222 927.297 777.698L1215.81 36.1321C1220.32 24.8622 1229.33 18.1001 1239.48 18.1001H1329.64C1340.91 18.1001 1348.8 24.8622 1353.3 36.1321L1642.94 777.698C1648.58 791.222 1639.56 807 1621.53 807H1547.15C1537 807 1529.12 802.492 1524.61 790.095L1459.24 623.299C1455.86 614.283 1451.35 608.648 1441.21 608.648H1127.9C1117.76 608.648 1113.25 614.283 1109.87 623.299L1045.63 790.095C1041.12 802.492 1032.11 807 1021.97 807H947.583ZM1154.95 485.805C1150.44 499.329 1157.21 504.964 1163.97 504.964H1405.14C1411.91 504.964 1418.67 499.329 1414.16 485.805L1293.57 166.864C1290.19 156.721 1278.92 156.721 1275.54 166.864L1154.95 485.805Z" fill="black"/>
<path d="M24.24 807C10.716 807 0.573006 796.857 0.573006 783.333V41.7671C0.573006 28.2431 10.716 18.1001 24.24 18.1001H125.67C142.575 18.1001 149.337 25.9891 153.845 39.5131L402.912 636.823C407.42 645.839 417.563 645.839 420.944 636.823L670.011 39.5131C675.646 25.9891 682.408 18.1001 698.186 18.1001H799.616C813.14 18.1001 823.283 28.2431 823.283 41.7671V783.333C823.283 796.857 813.14 807 799.616 807H741.012C727.488 807 717.345 796.857 717.345 783.333V237.865C717.345 227.722 702.694 224.341 699.313 235.611L470.532 778.825C462.643 800.238 455.881 807 442.357 807H382.626C367.975 807 362.34 800.238 353.324 778.825L125.67 235.611C121.162 224.341 107.638 227.722 107.638 237.865V783.333C107.638 796.857 96.368 807 82.844 807H24.24Z" fill="black"/>
</svg>
