<?xml version="1.0" encoding="utf-8"?>
<!-- Generator: Adobe Illustrator 26.3.1, SVG Export Plug-In . SVG Version: 6.00 Build 0)  -->
<svg version="1.1" id="Layer_1" xmlns="http://www.w3.org/2000/svg" xmlns:xlink="http://www.w3.org/1999/xlink" x="0px" y="0px"
	 viewBox="0 0 4896 826" style="enable-background:new 0 0 4896 826;" xml:space="preserve">
<path d="M1774.4,807c-12.4,0-22.5-10.1-22.5-22.5V40.6c0-12.4,10.1-22.5,22.5-22.5h332.5c129.6,0,229.9,95.8,229.9,232.2
	c0,100.3-65.4,176.9-140.9,211.9c-18,9-21.4,20.3-11.3,37.2l147.6,271.6c10.1,18,0,36.1-19.2,36.1h-65.4c-16.9,0-23.7-7.9-31.6-21.4
	l-154.4-282.9c-4.5-6.8-9-12.4-20.3-12.4h-170.2c-6.8,0-11.3,4.5-11.3,11.3v282.9c0,12.4-10.1,22.5-22.5,22.5H1774.4z M1860.1,373.1
	c0,6.8,4.5,11.3,11.3,11.3H2099c72.1,0,127.4-58.6,127.4-129.6c0-78.9-55.2-129.6-127.4-129.6h-227.7c-6.8,0-11.3,4.5-11.3,11.3
	V373.1z"/>
</svg>
