<?xml version="1.0" encoding="utf-8"?>
<!-- Generator: Adobe Illustrator 26.3.1, SVG Export Plug-In . SVG Version: 6.00 Build 0)  -->
<svg version="1.1" id="Layer_1" xmlns="http://www.w3.org/2000/svg" xmlns:xlink="http://www.w3.org/1999/xlink" x="0px" y="0px"
	 viewBox="0 0 4896 826" style="enable-background:new 0 0 4896 826;" xml:space="preserve">
<path d="M947.6,807c-18,0-25.9-15.8-20.3-29.3l288.5-741.6c4.5-11.3,13.5-18,23.7-18h90.2c11.3,0,19.2,6.8,23.7,18l289.6,741.6
	c5.6,13.5-3.4,29.3-21.4,29.3h-74.4c-10.2,0-18-4.5-22.5-16.9l-65.4-166.8c-3.4-9-7.9-14.7-18-14.7h-313.3c-10.1,0-14.7,5.6-18,14.7
	l-64.2,166.8c-4.5,12.4-13.5,16.9-23.7,16.9H947.6z M1154.9,485.8c-4.5,13.5,2.3,19.2,9,19.2h241.2c6.8,0,13.5-5.6,9-19.2
	l-120.6-318.9c-3.4-10.1-14.6-10.1-18,0L1154.9,485.8z"/>
</svg>
