<?xml version="1.0" encoding="utf-8"?>
<!-- Generator: Adobe Illustrator 26.3.1, SVG Export Plug-In . SVG Version: 6.00 Build 0)  -->
<svg version="1.1" id="Layer_1" xmlns="http://www.w3.org/2000/svg" xmlns:xlink="http://www.w3.org/1999/xlink" x="0px" y="0px"
	 viewBox="0 0 4896 826" style="enable-background:new 0 0 4896 826;" xml:space="preserve">
<path d="M3572.1,807c-12.4,0-22.5-10.1-22.5-22.5V40.6c0-12.4,10.1-22.5,22.5-22.5h91.3c14.7,0,20.3,5.6,29.3,21.4l365.2,570.3
	c5.6,7.9,16.9,5.6,16.9-4.5V40.6c0-12.4,10.1-22.5,22.5-22.5h63.1c12.4,0,22.5,10.1,22.5,22.5v743.8c0,12.4-10.2,22.5-22.5,22.5
	h-91.3c-14.7,0-20.3-5.6-29.3-21.4l-365.2-570.3c-5.6-7.9-16.9-5.6-16.9,4.5v564.6c0,12.4-10.1,22.5-22.5,22.5H3572.1z"/>
</svg>
