<?xml version="1.0" encoding="utf-8"?>
<!-- Generator: Adobe Illustrator 26.3.1, SVG Export Plug-In . SVG Version: 6.00 Build 0)  -->
<svg version="1.1" id="Layer_1" xmlns="http://www.w3.org/2000/svg" xmlns:xlink="http://www.w3.org/1999/xlink" x="0px" y="0px"
	 viewBox="0 0 4896 826" style="enable-background:new 0 0 4896 826;" xml:space="preserve">
<path d="M2810.4,825c-125.1,0-222-41.7-288.5-116.1c-62-72.1-93.5-174.7-93.5-296.4s31.6-224.3,93.5-296.4
	c65.4-74.4,162.3-116.1,287.4-116.1c196.1,0,321.2,131.9,326.8,238.9c1.1,15.8-9,24.8-22.5,24.8h-64.2c-14.7,0-23.7-9-25.9-21.4
	c-13.5-71-95.8-134.1-214.1-134.1c-90.2,0-157.8,29.3-202.9,83.4c-43.9,54.1-65.4,131.9-65.4,220.9s21.4,167.9,65.4,222
	c46.2,55.2,112.7,85.7,204,85.7c138.6,0,225.4-83.4,225.4-206.2v-4.5c0-9-4.5-12.4-12.4-12.4h-216.4c-13.5,0-23.7-10.1-23.7-23.7
	v-56.3c0-13.5,10.1-23.7,23.7-23.7H3126c13.5,0,23.7,10.1,23.7,23.7v60.9C3149.7,693.2,3015.6,825,2810.4,825z"/>
</svg>
