<svg fill="none" height="200" viewBox="0 0 1155 200" width="1155" xmlns="http://www.w3.org/2000/svg"><g stroke="#000" stroke-width="2"><path d="m1063.11 107.138v.001l33.07 6.693c10.24 2.125 17.64 5.353 22.47 9.86 4.8 4.47 7.16 10.282 7.16 17.811 0 10.121-4.21 17.778-11.61 22.943-7.45 5.197-18.2 7.92-31.31 7.92-13.23 0-24.1-2.985-31.64-8.7-7.51-5.687-11.81-14.15-11.81-25.376v-.536c0-3.486-2.82-6.355-6.29-6.355h-16.14c-3.47 0-6.29 2.869-6.29 6.355v.536c0 19.696 7.6 34.919 20.48 45.196 12.86 10.254 30.9 15.514 51.69 15.514 20.54 0 38.3-5.466 50.96-15.582 12.67-10.133 20.15-24.882 20.15-43.254 0-14.545-4.51-26.313-12.8-35.19-8.29-8.8629-20.27-14.7622-35.1-17.7359v-.001l-28.83-5.6211c0-.0003 0-.0007-.01-.001-11.06-2.2673-19.27-5.2418-24.71-9.5119-5.37-4.2182-8.08-9.7453-8.08-17.3545 0-9.0278 3.92-15.7452 10.79-20.2499 6.92-4.5387 16.89-6.8648 28.95-6.8648 11.25 0 21.15 2.5168 28.21 7.3239 7.02 4.7816 11.27 11.8459 11.27 21.1296v.8033c0 3.4863 2.82 6.3552 6.29 6.3552h15.35c3.47 0 6.29-2.8689 6.29-6.3552v-.8033c0-17.0431-7.15-30.8524-19.16-40.3784-11.99-9.50903-28.76-14.709-47.98-14.709-18.02 0-35.11 4.7258-47.72 13.949-12.64 9.2439-20.75 22.9893-20.75 40.8707 0 14.5441 4.44 25.918 12.62 34.3983 8.15 8.4601 19.94 13.95 34.48 16.92z"/><path d="m835.845 188.629c0 3.495 2.826 6.371 6.31 6.371h14.865c3.483 0 6.309-2.876 6.309-6.371v-134.5547c0-.7897.388-1.094.729-1.1768.388-.0941.973.0375 1.423.6606l85.979 135.8529c1.056 1.869 1.999 3.298 3.195 4.235 1.258.986 2.696 1.354 4.565 1.354h21.502c3.483 0 6.309-2.876 6.309-6.371v-177.2576c0-3.49548-2.826-6.3714-6.309-6.3714h-14.866c-3.483 0-6.309 2.87589-6.309 6.3714v134.5546c0 .789-.388 1.094-.729 1.177-.387.094-.973-.038-1.422-.661l-85.979-135.8528c-1.057-1.86892-2-3.29832-3.195-4.23502-1.259-.98577-2.696-1.35418-4.566-1.35418h-21.501c-3.484 0-6.31 2.87589-6.31 6.3714z"/><path d="m773.603 188.36c0 3.772 2.852 6.64 6.619 6.64h14.449c3.767 0 6.619-2.868 6.619-6.64v-176.72c0-3.77165-2.852-6.64-6.619-6.64h-14.449c-3.767 0-6.619 2.86835-6.619 6.64z"/><path d="m594.201 171.067.007.008.006.007c15.793 17.92 38.786 27.918 68.328 27.918 24.244 0 44.384-7.909 58.461-22.359 14.076-14.447 21.996-35.334 21.996-61.111v-14.459c0-3.7519-2.81-6.6229-6.543-6.6229h-74.706c-3.733 0-6.543 2.871-6.543 6.6229v13.388c0 3.752 2.81 6.623 6.543 6.623h50.684c.802 0 1.227.177 1.457.396.22.208.447.628.447 1.549v1.071c0 14.352-4.992 26.327-13.907 34.717-8.921 8.395-21.858 13.283-37.889 13.283-21.126 0-36.398-7.127-47.003-19.98-10.101-12.614-15.087-31.102-15.087-52.118 0-21.0129 4.984-39.2354 15.087-51.851 10.332-12.5728 25.859-19.4441 46.739-19.4441 27.417 0 46.122 14.8085 49.173 31.0455.298 1.6562 1.052 3.1413 2.268 4.2156 1.224 1.0814 2.852 1.6897 4.786 1.6897h15.047c1.809 0 3.474-.6149 4.651-1.8497 1.181-1.2395 1.773-3.001 1.627-5.1017-1.36-26.0827-31.217-57.7043-77.552-57.7043-29.54 0-52.538 9.997-68.07 27.9244l-.007.0084c-14.716 17.3692-22.147 41.9909-22.147 71.0672 0 29.076 7.431 53.698 22.147 71.067z"/><path d="m516.478 120.208-.01-.019-.01-.018c-1.134-1.917-1.374-3.291-1.06-4.342.313-1.053 1.273-2.09 3.284-3.113 18.003-8.461 33.636-27.0336 33.636-51.3903 0-33.0418-23.99-56.3257-54.979-56.3257h-78.058c-3.477 0-6.292 2.87894-6.292 6.3714v177.2576c0 3.492 2.815 6.371 6.292 6.371h14.818c3.477 0 6.292-2.879 6.292-6.371v-67.412c0-.583.187-.989.44-1.245.251-.255.644-.441 1.206-.441h39.955c1.135 0 1.847.282 2.383.678.562.415 1.003 1.005 1.52 1.789l36.23 67.373.007.012.007.012c.932 1.622 1.873 3.05 3.164 4.052 1.333 1.035 2.951 1.553 5.112 1.553h15.347c2.588 0 4.663-1.252 5.711-3.215 1.042-1.952.992-4.46-.335-6.858-.001-.002-.002-.004-.003-.006zm-74.441-27.9223c-.562 0-.955-.1854-1.206-.4404-.253-.2563-.44-.6624-.44-1.2453v-56.4c0-.5829.187-.989.44-1.2453.251-.255.644-.4404 1.206-.4404h53.45c8.225 0 15.438 2.9315 20.593 8.0991 5.152 5.1654 8.307 12.624 8.307 21.7866 0 16.4109-12.56 29.8857-28.9 29.8857z"/><path d="m286.629 9.93028-.003.00875-67.778 176.70897c-.77 1.884-.629 3.963.376 5.594 1.022 1.658 2.878 2.758 5.319 2.758h17.475c1.341 0 2.671-.303 3.831-1.074 1.163-.773 2.077-1.965 2.668-3.608.001-.003.002-.006.003-.009l15.086-39.731.003-.008c.378-1.023.773-1.717 1.259-2.16.45-.411 1.057-.679 2.039-.679h73.608c.982 0 1.589.268 2.039.679.486.443.881 1.137 1.259 2.16l.003.006.002.007 15.353 39.737c.579 1.61 1.409 2.804 2.507 3.587 1.104.788 2.381 1.093 3.726 1.093h17.475c4.951 0 7.542-4.481 5.96-8.352l-68.043-176.7102-.003-.0075c-.576-1.45965-1.394-2.69598-2.492-3.57088-1.11-.8849-2.457-1.35942-3.999-1.35942h-21.182c-2.884 0-5.317 1.95367-6.491 4.93028zm18.25 31.83332.006.0187.007.0184 28.324 75.9873c.468 1.436.279 2.234.031 2.629-.245.391-.683.606-1.205.606h-56.662c-.522 0-.96-.215-1.205-.606-.248-.395-.437-1.193.031-2.63l28.324-75.9863.007-.0184.006-.0187c.291-.8875.827-1.125 1.168-1.125s.877.2375 1.168 1.125z"/><path d="m100.02 153.065-.007.017-.006.016c-.2781.75-.7427.959-1.0852.959-.3652 0-.9119-.238-1.3108-1.026l-58.5964-142.2758c-.5516-1.66479-1.2866-3.13349-2.5127-4.1746-1.2583-1.06852-2.9052-1.5806-5.0573-1.5806h-23.874c-3.74712 0-6.5706 2.87657-6.5706 6.64v176.72c0 3.763 2.82348 6.64 6.5706 6.64h13.7939c3.6857 0 6.8358-2.816 6.8358-6.64v-129.9886c0-.7167.4416-1.1148.9022-1.1981.4165-.0753 1.0402.0872 1.412 1.0284l.003.0076.0031.0074 53.5839 129.4513.0006.002c1.0567 2.541 1.9813 4.393 3.163 5.589 1.2643 1.28 2.7437 1.741 4.6573 1.741h14.0596c1.794 0 3.267-.468 4.524-1.741 1.187-1.201 2.106-3.05 3.039-5.61l53.841-129.4306.02-.0491.015-.0509c.137-.4603.359-.697.559-.8185.209-.1269.465-.1718.731-.1255.541.0944.996.5311.996 1.197v129.9886c0 3.763 2.823 6.64 6.57 6.64h13.794c3.747 0 6.571-2.877 6.571-6.64v-176.72c0-3.76344-2.824-6.64-6.571-6.64h-23.874c-2.041 0-3.613.52311-4.858 1.58061-1.212 1.02904-2.016 2.48362-2.698 4.14169z"/></g></svg>