<?xml version="1.0" encoding="utf-8"?>
<!-- Generator: Adobe Illustrator 26.3.1, SVG Export Plug-In . SVG Version: 6.00 Build 0)  -->
<svg version="1.1" id="Layer_1" xmlns="http://www.w3.org/2000/svg" xmlns:xlink="http://www.w3.org/1999/xlink" x="0px" y="0px"
	 viewBox="0 0 4896 826" style="enable-background:new 0 0 4896 826;" xml:space="preserve">
<path d="M24.2,807c-13.5,0-23.7-10.1-23.7-23.7V41.8c0-13.5,10.1-23.7,23.7-23.7h101.4c16.9,0,23.7,7.9,28.2,21.4l249.1,597.3
	c4.5,9,14.7,9,18,0L670,39.5c5.6-13.5,12.4-21.4,28.2-21.4h101.4c13.5,0,23.7,10.1,23.7,23.7v741.6c0,13.5-10.1,23.7-23.7,23.7H741
	c-13.5,0-23.7-10.1-23.7-23.7V237.9c0-10.1-14.7-13.5-18-2.3L470.5,778.8c-7.9,21.4-14.7,28.2-28.2,28.2h-59.7
	c-14.7,0-20.3-6.8-29.3-28.2L125.7,235.6c-4.5-11.3-18-7.9-18,2.3v545.5c0,13.5-11.3,23.7-24.8,23.7H24.2z"/>
</svg>
