<?xml version="1.0" encoding="utf-8"?>
<!-- Generator: Adobe Illustrator 26.3.1, SVG Export Plug-In . SVG Version: 6.00 Build 0)  -->
<svg version="1.1" id="Layer_1" xmlns="http://www.w3.org/2000/svg" xmlns:xlink="http://www.w3.org/1999/xlink" x="0px" y="0px"
	 viewBox="0 0 4896 826" style="enable-background:new 0 0 4896 826;" xml:space="preserve">
<path d="M4597.3,825c-175.8,0-303.2-87.9-303.2-251.3v-2.3c0-12.4,10.1-22.5,22.5-22.5h68.8c12.4,0,22.5,10.1,22.5,22.5v2.3
	c0,96.9,75.5,147.6,189.3,147.6c112.7,0,187.1-46.2,187.1-134.1c0-65.4-41.7-102.6-129.6-120.6l-140.9-28.2
	c-122.8-24.8-197.2-91.3-197.2-211.9c0-147.6,135.2-226.5,287.4-226.5c162.3,0,281.8,86.8,281.8,227.7v3.4
	c0,12.4-10.1,22.5-22.5,22.5h-65.4c-12.4,0-22.5-10.1-22.5-22.5v-3.4c0-81.1-75.5-124-172.4-124c-103.7,0-173.6,39.4-173.6,118.3
	c0,66.5,48.5,98,143.1,117.2l122.9,23.7c125.1,24.8,200.6,98,200.6,218.6C4896,733.7,4770.9,825,4597.3,825z"/>
</svg>
